# xmcd
#
# Track frame offsets:
#	150
#	11940
#	28046
#	45157
#	62621
#	76134
#	90142
#	100518
#	116083
#	131098
#	148759
#
# Disc length: 2181 seconds
#
# Revision: 3
# Processed by: cddbd v1.5.2PL0 Copyright (c) Steve Scherf et al.
# Submitted via: EasyCDDAExtractor 15.3.0.1
#
DISCID=8108830b
DTITLE=Alejandro Fernandez - Rompiendo Fronteras
DYEAR=2017
DGENRE=Latin
TTITLE0=Quiero Que Vuelvas
TTITLE1=Tienes Que Entender
TTITLE2=Se Que Te Duele (Featuring Morat)
TTITLE3=Agridulce
TTITLE4=Pude
TTITLE5=Inocente
TTITLE6=En Lo Correcto
TTITLE7=Cuando Mas Te Amaba
TTITLE8=No Pude
TTITLE9=Un Beso A Medias
TTITLE10=Cuando Gane La Distancia
EXTD=
EXTT0=
EXTT1=
EXTT2=
EXTT3=
EXTT4=
EXTT5=
EXTT6=
EXTT7=
EXTT8=
EXTT9=
EXTT10=
PLAYORDER=
